<?xml version="1.0" encoding="iso-8859-1"?>
<!-- Generator: Adobe Illustrator 19.0.0, SVG Export Plug-In . SVG Version: 6.00 Build 0)  -->
<svg version="1.1" id="Layer_1" xmlns="http://www.w3.org/2000/svg" xmlns:xlink="http://www.w3.org/1999/xlink" x="0px" y="0px"
	 viewBox="0 0 512 512" style="enable-background:new 0 0 512 512;" xml:space="preserve">
<circle style="fill:#00DFC1;" cx="255.996" cy="255.996" r="255.996"/>
<path style="fill:#00B5A3;" d="M512,255.999c0-24.754-3.525-48.682-10.081-71.324L386.552,69.309l-84.294,21.567v55.364
	l-50.202-46.804l-95.59-31.007l-54.256,84.589l24.127,23.625c-5.625,11.794-10.036,24.444-13.061,37.729h-9.888
	c-9.862,21.38-15.371,45.182-15.371,70.272c0,47.71,19.892,90.772,51.832,121.352l105.778,105.779
	c3.442,0.137,6.896,0.227,10.373,0.227C397.385,512,512,397.385,512,255.999z"/>
<g>
	<polygon style="fill:#FFFFFF;" points="315.315,175.966 302.259,175.966 302.259,90.877 386.552,69.309 389.789,81.96 
		315.315,101.014 	"/>
	
		<rect x="182.664" y="116.81" transform="matrix(-0.9416 0.3367 -0.3367 -0.9416 422.9558 249.9542)" style="fill:#FFFFFF;" width="14.281" height="89.681"/>
</g>
<polygon style="fill:#FF3C62;" points="156.466,68.429 102.21,153.018 252.056,99.436 "/>
<path style="fill:#FFEC97;" d="M131.767,166.186c-8.578,15.225-15.042,32.135-18.944,50.191h286.352
	c-3.903-18.056-10.365-34.966-18.944-50.191H131.767z"/>
<path style="fill:#FFDF47;" d="M399.176,216.375c-3.903-18.056-10.365-34.966-18.944-50.191H255.996v50.191H399.176z"/>
<path style="fill:#C06100;" d="M88.017,284.643c0,92.774,75.209,167.983,167.983,167.983s167.983-75.209,167.983-167.983
	c0-25.091-5.51-48.891-15.371-70.271H103.388C93.527,235.752,88.017,259.553,88.017,284.643z"/>
<path style="fill:#994B00;" d="M408.611,214.371H255.996v238.255c0.001,0,0.002,0,0.003,0c92.774,0,167.983-75.209,167.983-167.983
	C423.983,259.553,418.473,235.753,408.611,214.371z"/>
<g>
</g>
<g>
</g>
<g>
</g>
<g>
</g>
<g>
</g>
<g>
</g>
<g>
</g>
<g>
</g>
<g>
</g>
<g>
</g>
<g>
</g>
<g>
</g>
<g>
</g>
<g>
</g>
<g>
</g>
</svg>
